<svg class="content-tile--top--content--image" 
    xmlns="http://www.w3.org/2000/svg" viewBox="0 0 256 256">
    <title>brand-icon</title>
    <g id="bb61398f-322b-4f78-a02f-a67742985f99" data-name="OUTLINED - finance">
        <g>
            <path d="M174.19,117.878a24.488,24.488,0,0,1-1.643,8.884,25.9,25.9,0,0,1-4.807,7.848,28.181,28.181,0,0,1-7.727,6.084,30.759,30.759,0,0,1-10.4,3.347v13.872H136.467V144.041a40.065,40.065,0,0,1-15.575-5.111,46.662,46.662,0,0,1-11.439-9.735L120.77,119.7q5.96,9.372,15.94,11.683V101.572a80.583,80.583,0,0,1-8.518-3.224,33.035,33.035,0,0,1-7.666-4.685,22.33,22.33,0,0,1-5.537-6.754,19.618,19.618,0,0,1-2.129-9.43A22.734,22.734,0,0,1,114.5,68.9a21.33,21.33,0,0,1,4.745-7.178,27.435,27.435,0,0,1,7.484-5.233,32.015,32.015,0,0,1,9.735-2.86V41.1h13.142V53.872a34.677,34.677,0,0,1,12.959,4.5,42.3,42.3,0,0,1,9.553,8.153l-10.83,8.153a22.438,22.438,0,0,0-5.05-5.476,19.9,19.9,0,0,0-6.876-3.407V92.2q4.381,1.461,8.823,3.407a32.536,32.536,0,0,1,7.97,4.929,24.43,24.43,0,0,1,5.781,7.18A21.248,21.248,0,0,1,174.19,117.878ZM126.124,77.113a8.477,8.477,0,0,0,2.981,6.876,25.438,25.438,0,0,0,7.605,4.2V65.432a13.842,13.842,0,0,0-7.849,4.258A10.991,10.991,0,0,0,126.124,77.113Zm34.68,40.765a9.541,9.541,0,0,0-3.285-7.666,27.2,27.2,0,0,0-8.154-4.624v25.919a15.608,15.608,0,0,0,8.457-5.172,13.133,13.133,0,0,0,2.978-8.457Z" fill="#193560"/>
            <path d="M37.654,183.611l-.207.017Z" fill="none"/>
            <path d="M24.118,183.483c-.33-.034-.66-.063-.99-.1C23.458,183.42,23.788,183.449,24.118,183.483Z" fill="none"/>
            <path d="M30.291,183.847c-.336,0-.672-.006-1.008-.015C29.619,183.841,29.955,183.842,30.291,183.847Z" fill="none"/>
            <path d="M28.251,183.788c-.34-.015-.68-.025-1.02-.045C27.571,183.763,27.911,183.773,28.251,183.788Z" fill="none"/>
            <path d="M26.191,183.668c-.337-.025-.675-.045-1.012-.075C25.516,183.623,25.854,183.643,26.191,183.668Z" fill="none"/>
            <path d="M34.768,183.783c-.227.01-.454.018-.682.026C34.314,183.8,34.541,183.793,34.768,183.783Z" fill="none"/>
            <path d="M55.442,180.64l-.086.021Z" fill="none"/>
            <path d="M52.769,181.262q-.321.072-.642.141Q52.448,181.334,52.769,181.262Z" fill="none"/>
            <path d="M40.84,183.3l-.671.073Z" fill="none"/>
            <path d="M58.568,179.843l-.615.162Z" fill="none"/>
            <path d="M43.673,182.944l-.172.026Z" fill="none"/>
            <path d="M46.85,182.439c-.22.039-.44.077-.66.112Q46.52,182.5,46.85,182.439Z" fill="none"/>
            <path d="M61.145,179.144l-.041.011Z" fill="none"/>
            <path d="M45.609,173.55q1.092-.194,2.181-.408Q46.7,173.358,45.609,173.55Z" fill="none"/>
            <path d="M29.8,174.862c.279.007.558.007.837.011C30.362,174.869,30.083,174.869,29.8,174.862Z" fill="none"/>
            <path d="M26.186,174.659c.279.024.557.04.836.06C26.743,174.7,26.465,174.683,26.186,174.659Z" fill="none"/>
            <path d="M34.606,174.809q1.086-.049,2.173-.129Q35.693,174.761,34.606,174.809Z" fill="none"/>
            <path d="M28,174.787c.276.016.552.024.828.036C28.547,174.811,28.271,174.8,28,174.787Z" fill="none"/>
            <path d="M37.088,174.659c.806-.063,1.611-.142,2.416-.23C38.7,174.517,37.894,174.6,37.088,174.659Z" fill="none"/>
            <path d="M42.583,174.041q1.2-.175,2.408-.383Q43.788,173.864,42.583,174.041Z" fill="none"/>
            <path d="M40.116,174.36q1.089-.127,2.177-.28Q41.2,174.234,40.116,174.36Z" fill="none"/>
            <path d="M19.008,173.56c.206.046.413.084.62.128C19.421,173.644,19.214,173.606,19.008,173.56Z" fill="none"/>
            <path d="M17.645,182.465c-.219-.047-.439-.086-.658-.136C17.206,182.379,17.426,182.418,17.645,182.465Z" fill="none"/>
            <path d="M24.384,174.474c.279.033.559.058.838.087C24.943,174.532,24.663,174.507,24.384,174.474Z" fill="none"/>
            <path d="M19.939,182.906c-.3-.052-.607-.1-.91-.156C19.332,182.807,19.636,182.854,19.939,182.906Z" fill="none"/>
            <path d="M22.022,183.229c-.314-.043-.629-.081-.944-.129C21.393,183.148,21.708,183.186,22.022,183.229Z" fill="none"/>
            <path d="M20.794,173.927c.25.047.5.084.749.128C21.293,174.011,21.044,173.974,20.794,173.927Z" fill="none"/>
            <path d="M22.587,174.231c.267.041.534.073.8.109C23.121,174.3,22.854,174.272,22.587,174.231Z" fill="none"/>
            <path d="M49.611,181.929l-.132.028Z" fill="none"/>
            <path d="M159.017,212.941a9.32,9.32,0,0,1-.832.819A9.32,9.32,0,0,0,159.017,212.941Z" fill="none"/>
            <path d="M159.912,211.724a9.177,9.177,0,0,0,.586-1.076A9.177,9.177,0,0,1,159.912,211.724Z" fill="none"/>
            <path d="M157.148,214.546a9.4,9.4,0,0,0,.809-.595A9.189,9.189,0,0,1,157.148,214.546Z" fill="none"/>
            <path d="M159.084,212.857a9.288,9.288,0,0,0,.658-.871A9.288,9.288,0,0,1,159.084,212.857Z" fill="none"/>
            <path d="M152,216.05c-.176,0-.353-.016-.529-.028C151.65,216.034,151.827,216.047,152,216.05Z" fill="none"/>
            <path d="M104,168.082c-.141-.018-.285-.033-.431-.046C103.719,168.049,103.863,168.064,104,168.082Z" fill="none"/>
            <path d="M105.162,168.281c-.115-.027-.236-.046-.355-.069C104.925,168.235,105.047,168.254,105.162,168.281Z" fill="none"/>
            <path d="M154.83,215.633a9.437,9.437,0,0,0,.905-.334A9.437,9.437,0,0,1,154.83,215.633Z" fill="none"/>
            <path d="M156,215.186a9.536,9.536,0,0,0,1.006-.541A9.356,9.356,0,0,1,156,215.186Z" fill="none"/>
            <path d="M148.336,215.239a9.109,9.109,0,0,0,.9.351A9.109,9.109,0,0,1,148.336,215.239Z" fill="none"/>
            <path d="M64.238,178.251l-.607.178Z" fill="none"/>
            <path d="M149.545,215.676c.2.06.406.12.611.165C149.951,215.8,149.748,215.736,149.545,215.676Z" fill="none"/>
            <path d="M101.081,167.993h-.15A.538.538,0,0,0,101.081,167.993Z" fill="none"/>
            <path d="M152.281,216.042a9.016,9.016,0,0,0,.957-.068A9.016,9.016,0,0,1,152.281,216.042Z" fill="none"/>
            <path d="M153.505,215.941a9.2,9.2,0,0,0,1.114-.24A9.2,9.2,0,0,1,153.505,215.941Z" fill="none"/>
            <path d="M150.522,215.905c.186.033.371.067.558.088C150.894,215.972,150.708,215.938,150.522,215.905Z" fill="none"/>
            <path d="M79.855,173.259l-.578.189Z" fill="none"/>
            <path d="M82.018,172.554l-.675.219Z" fill="none"/>
            <path d="M84.056,171.9l-.6.192Z" fill="none"/>
            <path d="M66.719,177.5l-.026.008Z" fill="none"/>
            <path d="M99.481,168.119c-.146.016-.3.037-.446.055C99.184,168.156,99.335,168.135,99.481,168.119Z" fill="none"/>
            <path d="M75.123,174.816l-.606.2Z" fill="none"/>
            <path d="M69.739,176.559l-.585.186Z" fill="none"/>
            <path d="M86.077,171.269l-.039.012Z" fill="none"/>
            <path d="M96.256,168.614c-.169.032-.336.063-.507.1C95.92,168.677,96.087,168.646,96.256,168.614Z" fill="none"/>
            <path d="M97.933,168.324q-.269.04-.54.087Q97.665,168.365,97.933,168.324Z" fill="none"/>
            <path d="M94.157,169.052l-.089.02Z" fill="none"/>
            <path d="M92.3,169.5c-.171.043-.346.09-.518.135C91.95,169.593,92.125,169.546,92.3,169.5Z" fill="none"/>
            <path d="M88.5,170.546c-.183.053-.365.105-.549.16C88.131,170.651,88.313,170.6,88.5,170.546Z" fill="none"/>
            <path d="M90.457,169.99l-.614.171Z" fill="none"/>
            <path d="M64.171,168.876q1.167-.362,2.325-.728Q65.338,168.514,64.171,168.876Z" fill="none"/>
            <path d="M82.553,162.935q1.025-.321,2.025-.623Q83.576,162.615,82.553,162.935Z" fill="none"/>
            <path d="M85.241,162.114q.828-.246,1.638-.478Q86.068,161.867,85.241,162.114Z" fill="none"/>
            <path d="M80.016,163.741c.787-.253,1.567-.5,2.334-.743C81.583,163.239,80.8,163.488,80.016,163.741Z" fill="none"/>
            <path d="M89.911,160.809q.874-.225,1.73-.427Q90.786,160.585,89.911,160.809Z" fill="none"/>
            <path d="M87.48,161.464c.711-.2,1.415-.393,2.107-.573C88.9,161.071,88.191,161.264,87.48,161.464Z" fill="none"/>
            <path d="M72.345,166.255l2.137-.7Z" fill="none"/>
            <path d="M61.838,169.582q1.105-.33,2.2-.667Q62.945,169.253,61.838,169.582Z" fill="none"/>
            <path d="M67.116,167.951q1.1-.35,2.182-.7Z" fill="none"/>
            <path d="M92.261,160.239q.767-.174,1.515-.327Q93.026,160.065,92.261,160.239Z" fill="none"/>
            <path d="M74.482,165.551l2.338-.769Z" fill="none"/>
            <path d="M77.516,164.554l1.825-.594Q78.437,164.253,77.516,164.554Z" fill="none"/>
            <path d="M69.388,167.221q1.171-.38,2.333-.762Q70.56,166.842,69.388,167.221Z" fill="none"/>
            <path d="M105.156,159.16c.247.032.5.052.744.092C105.656,159.212,105.4,159.192,105.156,159.16Z" fill="none"/>
            <path d="M107.058,159.494c.2.045.4.077.6.128C107.462,159.571,107.257,159.539,107.058,159.494Z" fill="none"/>
            <path d="M94.286,159.807q.971-.189,1.914-.342Q95.256,159.617,94.286,159.807Z" fill="none"/>
            <path d="M102.285,167.97c.145,0,.284.009.426.013C102.569,167.979,102.43,167.971,102.285,167.97Z" fill="none"/>
            <path d="M34.011,174.834c-.807.03-1.613.048-2.419.049C32.4,174.882,33.2,174.864,34.011,174.834Z" fill="none"/>
            <path d="M103.252,159c.272.013.549.016.817.037C103.8,159.013,103.524,159.01,103.252,159Z" fill="none"/>
            <path d="M96.573,159.411q.761-.115,1.5-.2Q97.334,159.295,96.573,159.411Z" fill="none"/>
            <path d="M98.64,159.146q.714-.073,1.408-.118Q99.354,159.073,98.64,159.146Z" fill="none"/>
            <path d="M102.053,158.954c-.521,0-1.051.017-1.588.045q.865-.045,1.7-.041C102.129,158.958,102.092,158.954,102.053,158.954Z" fill="none"/>
            <path d="M58.87,170.445q1.179-.333,2.349-.68Q60.049,170.112,58.87,170.445Z" fill="none"/>
            <path d="M56.485,171.1q1.1-.294,2.192-.6Q57.585,170.808,56.485,171.1Z" fill="none"/>
            <path d="M53.491,171.872q1.189-.294,2.374-.608Q54.68,171.576,53.491,171.872Z" fill="none"/>
            <path d="M48.057,173.091q1.2-.242,2.393-.509Q49.254,172.847,48.057,173.091Z" fill="none"/>
            <path d="M51.07,172.442q1.1-.249,2.191-.515Q52.167,172.194,51.07,172.442Z" fill="none"/>
            <path d="M197.815,22.027a95.224,95.224,0,0,0-13.162-7.717l-5.214,10.808a83.256,83.256,0,0,1,11.5,6.742A82.2,82.2,0,0,1,160,179.8c1.6,1.072,3.187,2.122,3.856,2.536a26.806,26.806,0,0,1,8.677,6.561,94.159,94.159,0,0,0,25.282-166.87Z" fill="#13315b"/>
            <path d="M249.668,188.19a18.191,18.191,0,0,0-22.175-13.042h0c-5.966,1.548-46.158,14-62.341,19.032a18.685,18.685,0,0,0-5.459-3.857c-.714-.371-3.982-2.563-7.141-4.682-1.927-1.293-4.081-2.736-6.363-4.252-11.664-7.747-27.041-17.586-36.84-21.236q-.831-.307-1.689-.531c-.2-.051-.4-.083-.6-.128-.383-.087-.764-.177-1.158-.242-.244-.04-.5-.06-.744-.092-.361-.045-.718-.1-1.087-.126-.268-.021-.545-.024-.817-.037-.36-.016-.717-.037-1.084-.039q-.838,0-1.7.041c-.137.008-.278.02-.417.029q-.695.045-1.408.118c-.187.019-.374.04-.563.062q-.743.087-1.5.2c-.125.019-.248.034-.373.054q-.944.151-1.914.342c-.169.033-.34.071-.51.1q-.75.153-1.515.327c-.206.047-.412.094-.62.143q-.855.2-1.73.427c-.109.028-.215.053-.324.082-.692.18-1.4.373-2.107.573l-.6.172q-.812.232-1.638.478l-.663.2q-1,.3-2.025.623l-.2.063c-.767.241-1.547.49-2.334.743l-.675.219-1.825.594-.7.228-2.338.769-2.137.7-.624.2q-1.163.383-2.333.762l-.09.029q-1.086.352-2.182.7l-.62.2q-1.158.366-2.325.728l-.13.039q-1.1.338-2.2.667l-.619.183q-1.17.346-2.349.68l-.193.054q-1.092.308-2.192.6l-.62.165q-1.185.312-2.374.608l-.23.055q-1.093.267-2.191.515c-.206.048-.413.094-.62.14q-1.2.266-2.393.509c-.089.018-.178.034-.267.051q-1.089.216-2.181.408c-.206.036-.412.073-.618.108q-1.2.206-2.408.383c-.1.014-.194.025-.29.039q-1.089.154-2.177.28c-.2.023-.408.047-.612.069-.8.088-1.61.167-2.416.23-.1.008-.206.013-.309.021q-1.086.081-2.173.129c-.2.009-.4.018-.6.025-.807.03-1.613.048-2.419.049h-.082c-.29,0-.58-.008-.869-.012s-.558,0-.837-.011c-.327-.009-.654-.026-.981-.039-.276-.012-.552-.02-.828-.036-.325-.018-.649-.044-.973-.068-.279-.02-.557-.036-.836-.06-.321-.028-.642-.065-.964-.1-.279-.029-.559-.054-.838-.087-.332-.039-.664-.088-1-.134-.267-.036-.534-.068-.8-.109-.348-.053-.7-.116-1.044-.176-.25-.044-.5-.081-.749-.128-.389-.073-.778-.157-1.166-.239-.207-.044-.414-.082-.62-.128q-.892-.2-1.781-.432l-2.282,8.705q1.02.267,2.042.5c.219.05.439.089.658.136.461.1.922.2,1.384.285.3.057.607.1.91.156.38.065.759.136,1.139.194.315.048.63.086.944.129.369.051.737.107,1.106.151.33.04.66.069.99.1.354.038.707.079,1.061.11.337.03.675.05,1.012.075s.694.055,1.04.075.68.03,1.02.045.688.034,1.032.044.672.01,1.008.015.7.014,1.044.014h.242q1.256,0,2.509-.05c.228-.008.455-.016.682-.026.895-.039,1.788-.087,2.679-.155l.207-.017q1.26-.1,2.515-.234l.671-.073q1.333-.15,2.661-.334l.172-.026c.841-.12,1.68-.253,2.517-.393q.33-.054.66-.112,1.318-.228,2.629-.482l.132-.028q1.263-.249,2.516-.526.321-.069.642-.141,1.3-.291,2.587-.6l.086-.021q1.262-.308,2.511-.635l.615-.162q1.275-.338,2.536-.688l.041-.011q1.252-.351,2.486-.715l.607-.178q1.234-.366,2.455-.739l.026-.008q1.229-.377,2.435-.759l.585-.186q2.43-.771,4.778-1.545l.606-.2L77.3,174.1l1.976-.651.578-.189q.747-.246,1.488-.486l.675-.219q.72-.234,1.434-.461l.6-.192q1-.316,1.982-.62l.039-.012q.945-.291,1.87-.563c.184-.055.366-.107.549-.16q.68-.2,1.347-.385l.614-.171q.668-.183,1.321-.352c.172-.045.347-.092.518-.135.6-.153,1.192-.3,1.772-.431l.089-.02c.541-.123,1.07-.236,1.592-.341.171-.034.338-.065.507-.1.385-.073.764-.142,1.137-.2q.272-.047.54-.087c.374-.057.741-.106,1.1-.15.149-.018.3-.039.446-.055.5-.053.982-.1,1.45-.122h.15c.347-.016.689-.029,1.019-.029.064,0,.122,0,.185.006.145,0,.284.009.426.013.294.011.583.027.862.053.146.013.29.028.431.046.277.034.543.078.8.13.119.023.24.042.355.069a8.608,8.608,0,0,1,1.044.306c10.2,3.8,28.689,16.054,39.678,23.419l1.653,1.108.325.218c5.141,3.448,7.011,4.688,8.045,5.155a9.126,9.126,0,0,1,4,13.237c-.055.089-.112.176-.17.262a9.288,9.288,0,0,1-.658.871c-.023.027-.044.057-.067.084a9.32,9.32,0,0,1-.832.819c-.075.065-.151.128-.228.191a9.4,9.4,0,0,1-.809.595c-.049.032-.095.068-.145.1a9.536,9.536,0,0,1-1.006.541c-.087.04-.174.075-.262.113a9.437,9.437,0,0,1-.905.334c-.071.022-.14.048-.211.068a9.2,9.2,0,0,1-1.114.24c-.088.014-.178.022-.267.033a9.016,9.016,0,0,1-.957.068c-.058,0-.115.013-.173.013h-.1c-.176,0-.353-.016-.529-.028-.132-.009-.263-.014-.394-.029-.187-.021-.372-.055-.558-.088-.123-.022-.244-.037-.366-.064-.2-.045-.408-.1-.611-.165-.1-.03-.2-.052-.306-.086a9.109,9.109,0,0,1-.9-.351c-6.705-3.031-32.476-16.344-32.734-16.479l-4.133,8c1.068.552,26.241,13.556,33.16,16.684A18.193,18.193,0,0,0,169.7,202.191c17.128-5.318,54.549-16.9,60.048-18.332a9.192,9.192,0,0,1,4.616,17.795c-1.13.293-4.261,1.667-18.357,7.944-22.84,10.169-65.356,29.1-76.285,31.63-5.12,1.181-24.444-8.31-35.994-13.983-17.961-8.823-23.833-11.5-27.831-9.174-16.675,9.729-62.449,18.181-62.909,18.265l1.619,8.853c1.914-.35,46.37-8.564,64.963-18.852,3.2.636,12.955,5.431,20.2,8.986,18.112,8.9,31.134,14.967,39.189,14.967a12.437,12.437,0,0,0,2.8-.295c11.77-2.726,53.176-21.161,77.915-32.176,8.1-3.6,15.751-7.012,17.068-7.482A18.211,18.211,0,0,0,249.668,188.19Z" fill="#13315b"/>
            <path d="M94.068,169.072c-.58.133-1.172.278-1.772.431C92.9,169.35,93.488,169.205,94.068,169.072Z" fill="#10c14b"/>
            <path d="M95.749,168.711c-.522.1-1.051.218-1.592.341C94.7,168.929,95.227,168.816,95.749,168.711Z" fill="#10c14b"/>
            <path d="M102.168,158.958c.367,0,.724.023,1.084.039C102.892,158.981,102.535,158.96,102.168,158.958Z" fill="#10c14b"/>
            <path d="M36.779,174.68c.1-.008.206-.013.309-.021C36.985,174.667,36.882,174.672,36.779,174.68Z" fill="#10c14b"/>
            <path d="M149.239,215.59c.1.034.2.056.306.086C149.443,215.646,149.34,215.624,149.239,215.59Z" fill="#10c14b"/>
            <path d="M104.069,159.034c.369.029.726.081,1.087.126C104.8,159.115,104.438,159.063,104.069,159.034Z" fill="#10c14b"/>
            <path d="M100.931,168c-.468.026-.954.069-1.45.122C99.977,168.066,100.463,168.023,100.931,168Z" fill="#10c14b"/>
            <path d="M99.035,168.174c-.361.044-.728.093-1.1.15C98.307,168.267,98.674,168.218,99.035,168.174Z" fill="#10c14b"/>
            <path d="M97.393,168.411c-.373.061-.752.13-1.137.2C96.641,168.541,97.02,168.472,97.393,168.411Z" fill="#10c14b"/>
            <path d="M96.2,159.465c.125-.02.248-.035.373-.054C96.448,159.43,96.325,159.445,96.2,159.465Z" fill="#10c14b"/>
            <path d="M34.011,174.834c.2-.007.4-.016.6-.025C34.408,174.818,34.21,174.827,34.011,174.834Z" fill="#10c14b"/>
            <path d="M87.947,170.706q-.925.273-1.87.563Q87.022,170.978,87.947,170.706Z" fill="#10c14b"/>
            <path d="M86.038,171.281q-.981.3-1.982.62Q85.055,171.585,86.038,171.281Z" fill="#10c14b"/>
            <path d="M44.991,173.658c.206-.035.412-.072.618-.108C45.4,173.586,45.2,173.623,44.991,173.658Z" fill="#10c14b"/>
            <path d="M53.261,171.927l.23-.055Z" fill="#10c14b"/>
            <path d="M91.778,169.638q-.654.169-1.321.352Q91.125,169.807,91.778,169.638Z" fill="#10c14b"/>
            <path d="M100.048,159.028c.139-.009.28-.021.417-.029C100.328,159.007,100.187,159.019,100.048,159.028Z" fill="#10c14b"/>
            <path d="M89.843,170.161q-.668.186-1.347.385Q89.176,170.348,89.843,170.161Z" fill="#10c14b"/>
            <path d="M98.077,159.208c.189-.022.376-.043.563-.062Q98.361,159.175,98.077,159.208Z" fill="#10c14b"/>
            <path d="M107.659,159.622q.858.223,1.689.531Q108.517,159.846,107.659,159.622Z" fill="#10c14b"/>
            <path d="M101.081,167.993q.62-.03,1.2-.023c-.063,0-.121-.006-.185-.006C101.77,167.964,101.428,167.977,101.081,167.993Z" fill="#10c14b"/>
            <path d="M157,214.645c.05-.031.1-.067.145-.1A1.671,1.671,0,0,1,157,214.645Z" fill="#10c14b"/>
            <path d="M31.592,174.883c-.317,0-.634-.006-.951-.01.289,0,.579.012.869.012Z" fill="#10c14b"/>
            <path d="M159.742,211.986c.058-.086.115-.173.17-.262C159.857,211.813,159.8,211.9,159.742,211.986Z" fill="#10c14b"/>
            <path d="M157.957,213.951c.077-.063.153-.126.228-.191C158.11,213.825,158.034,213.888,157.957,213.951Z" fill="#10c14b"/>
            <path d="M151.08,215.993c.131.015.262.02.394.029C151.342,216.013,151.211,216.008,151.08,215.993Z" fill="#10c14b"/>
            <path d="M153.238,215.974c.089-.011.179-.019.267-.033C153.417,215.955,153.327,215.963,153.238,215.974Z" fill="#10c14b"/>
            <path d="M154.619,215.7c.071-.02.14-.046.211-.068C154.759,215.654,154.69,215.681,154.619,215.7Z" fill="#10c14b"/>
            <path d="M155.735,215.3c.088-.038.175-.073.262-.113C155.911,215.226,155.823,215.262,155.735,215.3Z" fill="#10c14b"/>
            <path d="M42.293,174.08l.29-.039C42.486,174.055,42.389,174.066,42.293,174.08Z" fill="#10c14b"/>
            <path d="M105.9,159.252c.394.065.775.155,1.158.242C106.675,159.407,106.294,159.317,105.9,159.252Z" fill="#10c14b"/>
            <path d="M159.084,212.857c-.023.027-.044.057-.067.084C159.04,212.914,159.061,212.884,159.084,212.857Z" fill="#10c14b"/>
            <path d="M17.227,173.128q.888.233,1.781.432Q18.116,173.361,17.227,173.128Z" fill="#10c14b"/>
            <path d="M103.573,168.036c-.279-.026-.568-.042-.862-.053C103.006,167.994,103.294,168.01,103.573,168.036Z" fill="#10c14b"/>
            <path d="M50.45,172.582c.207-.046.414-.092.62-.14C50.864,172.49,50.657,172.536,50.45,172.582Z" fill="#10c14b"/>
            <path d="M39.5,174.429l.612-.069C39.912,174.383,39.708,174.407,39.5,174.429Z" fill="#10c14b"/>
            <path d="M152.281,216.042c-.092,0-.185.009-.278.008h.105A1.431,1.431,0,0,0,152.281,216.042Z" fill="#10c14b"/>
            <path d="M106.206,168.587a8.608,8.608,0,0,0-1.044-.306A8.608,8.608,0,0,1,106.206,168.587Z" fill="#10c14b"/>
            <path d="M150.156,215.841c.122.027.243.042.366.064C150.4,215.883,150.277,215.868,150.156,215.841Z" fill="#10c14b"/>
            <path d="M104.807,168.212c-.26-.052-.526-.1-.8-.13C104.28,168.116,104.547,168.16,104.807,168.212Z" fill="#10c14b"/>
            <path d="M47.79,173.142c.089-.017.178-.033.267-.051C47.968,173.109,47.879,173.125,47.79,173.142Z" fill="#10c14b"/>
            <path d="M34.086,183.809q-1.252.043-2.509.05Q32.833,183.854,34.086,183.809Z" fill="#10c14b"/>
            <path d="M76.82,164.782l.7-.228Z" fill="#10c14b"/>
            <path d="M83.452,172.093q-.714.228-1.434.461Q82.739,172.32,83.452,172.093Z" fill="#10c14b"/>
            <path d="M29.283,183.832c-.344-.01-.688-.03-1.032-.044C28.6,183.8,28.939,183.822,29.283,183.832Z" fill="#10c14b"/>
            <path d="M58.677,170.5l.193-.054Z" fill="#10c14b"/>
            <path d="M21.543,174.055c.348.06.7.123,1.044.176C22.239,174.178,21.891,174.115,21.543,174.055Z" fill="#10c14b"/>
            <path d="M43.5,182.97c-.885.124-1.772.233-2.661.334C41.729,183.2,42.616,183.094,43.5,182.97Z" fill="#10c14b"/>
            <path d="M37.447,183.628c-.891.068-1.784.116-2.679.155C35.663,183.744,36.556,183.7,37.447,183.628Z" fill="#10c14b"/>
            <path d="M79.341,163.96l.675-.219Z" fill="#10c14b"/>
            <path d="M40.169,183.377q-1.255.133-2.515.234Q38.914,183.512,40.169,183.377Z" fill="#10c14b"/>
            <path d="M23.388,174.34c.332.046.664.095,1,.134C24.052,174.435,23.72,174.386,23.388,174.34Z" fill="#10c14b"/>
            <path d="M71.721,166.459l.624-.2Z" fill="#10c14b"/>
            <path d="M66.5,168.148l.62-.2Z" fill="#10c14b"/>
            <path d="M19.029,182.75c-.462-.087-.923-.187-1.384-.285C18.106,182.563,18.567,182.663,19.029,182.75Z" fill="#10c14b"/>
            <path d="M21.078,183.1c-.38-.058-.759-.129-1.139-.194C20.319,182.971,20.7,183.042,21.078,183.1Z" fill="#10c14b"/>
            <path d="M64.041,168.915l.13-.039Z" fill="#10c14b"/>
            <path d="M16.987,182.329q-1.021-.228-2.042-.5Q15.965,182.1,16.987,182.329Z" fill="#10c14b"/>
            <path d="M69.3,167.25l.09-.029Z" fill="#10c14b"/>
            <path d="M25.179,183.593c-.354-.031-.707-.072-1.061-.11C24.472,183.521,24.825,183.562,25.179,183.593Z" fill="#10c14b"/>
            <path d="M19.628,173.688c.388.082.777.166,1.166.239C20.405,173.854,20.016,173.77,19.628,173.688Z" fill="#10c14b"/>
            <path d="M61.219,169.765l.619-.183Z" fill="#10c14b"/>
            <path d="M27.231,183.743c-.346-.02-.693-.05-1.04-.075C26.538,183.693,26.885,183.723,27.231,183.743Z" fill="#10c14b"/>
            <path d="M23.128,183.38c-.369-.044-.737-.1-1.106-.151C22.391,183.28,22.759,183.336,23.128,183.38Z" fill="#10c14b"/>
            <path d="M31.335,183.861c-.348,0-.7-.009-1.044-.014C30.639,183.852,30.987,183.861,31.335,183.861Z" fill="#10c14b"/>
            <path d="M74.517,175.014q-2.346.769-4.778,1.545Q72.169,175.788,74.517,175.014Z" fill="#10c14b"/>
            <path d="M69.154,176.745q-1.209.381-2.435.759Q67.947,177.128,69.154,176.745Z" fill="#10c14b"/>
            <path d="M91.641,160.382c.208-.049.414-.1.62-.143C92.055,160.286,91.849,160.333,91.641,160.382Z" fill="#10c14b"/>
            <path d="M66.693,177.512q-1.218.373-2.455.739Q65.474,177.885,66.693,177.512Z" fill="#10c14b"/>
            <path d="M55.865,171.264l.62-.165Z" fill="#10c14b"/>
            <path d="M79.277,173.448,77.3,174.1Z" fill="#10c14b"/>
            <path d="M81.343,172.773q-.741.24-1.488.486Q80.6,173.013,81.343,172.773Z" fill="#10c14b"/>
            <path d="M93.776,159.912c.17-.034.341-.072.51-.105C94.117,159.84,93.946,159.878,93.776,159.912Z" fill="#10c14b"/>
            <path d="M77.3,174.1l-2.178.717Z" fill="#10c14b"/>
            <path d="M89.587,160.891c.109-.029.215-.054.324-.082Z" fill="#10c14b"/>
            <path d="M28.823,174.823c.327.013.654.03.981.039C29.477,174.853,29.15,174.836,28.823,174.823Z" fill="#10c14b"/>
            <path d="M25.222,174.561c.322.033.643.07.964.1C25.865,174.631,25.544,174.594,25.222,174.561Z" fill="#10c14b"/>
            <path d="M84.578,162.312l.663-.2Z" fill="#10c14b"/>
            <path d="M52.127,181.4q-1.254.274-2.516.526Q50.874,181.68,52.127,181.4Z" fill="#10c14b"/>
            <path d="M46.19,182.551c-.837.14-1.676.273-2.517.393C44.514,182.824,45.353,182.691,46.19,182.551Z" fill="#10c14b"/>
            <path d="M82.35,163l.2-.063Z" fill="#10c14b"/>
            <path d="M63.631,178.429q-1.236.363-2.486.715Q62.4,178.793,63.631,178.429Z" fill="#10c14b"/>
            <path d="M49.479,181.957q-1.309.256-2.629.482Q48.168,182.211,49.479,181.957Z" fill="#10c14b"/>
            <path d="M27.022,174.719c.324.024.648.05.973.068C27.67,174.769,27.346,174.743,27.022,174.719Z" fill="#10c14b"/>
            <path d="M55.356,180.661q-1.287.312-2.587.6Q54.067,180.972,55.356,180.661Z" fill="#10c14b"/>
            <path d="M61.1,179.155q-1.26.352-2.536.688Q59.844,179.505,61.1,179.155Z" fill="#10c14b"/>
            <path d="M86.879,161.636l.6-.172Z" fill="#10c14b"/>
            <path d="M57.953,180.005q-1.251.326-2.511.635Q56.7,180.333,57.953,180.005Z" fill="#10c14b"/>
            <path d="M8.629,250.69c-.109-.666-2.655-16.617-1.159-43.423,1.512-27.075,7.311-41.367,7.557-41.967l8.321,3.43c-.055.134-5.475,13.657-6.892,39.035-1.436,25.722,1.029,41.315,1.055,41.469Z" fill="#13315b"/>
            <path d="M70.37,158.27a93.465,93.465,0,0,1-17.387-34l11.571-3.185a81.5,81.5,0,0,0,15.164,29.66ZM50.428,111.729a94.19,94.19,0,0,1,2.678-38.086L64.654,76.9a81.982,81.982,0,0,0-3.069,22.241,82.817,82.817,0,0,0,.735,10.993ZM68.414,66.386l-11-4.8A95.05,95.05,0,0,1,79.44,30.4l8.2,8.756A83.1,83.1,0,0,0,68.414,66.386ZM96.3,32.091l-6.932-9.8a93.638,93.638,0,0,1,35-15.262l2.473,11.742A81.721,81.721,0,0,0,96.3,32.091Zm73.683-10.828A81.72,81.72,0,0,0,143.879,17c-1.986,0-4,.072-5.971.216l-.867-11.969C139.3,5.083,141.6,5,143.879,5a93.721,93.721,0,0,1,29.927,4.888Z" fill="#fdd800"/>
        </g>
    </g>
</svg>
