<svg class="content-tile--top--content--image" 
    xmlns="http://www.w3.org/2000/svg" viewBox="0 0 256 256">
    <title>brand-icon</title>
    <g id="a356a267-5b6d-441c-8117-721833ec3f2c" data-name="OUTLINED - finance">
        <g>
            <path d="M251.139,93.519l-.079-.276L234.174,50.505l5.3,46.059.22.555c1.926,6.682,2.765,9.759,2.514,11.933-.257,2.226-2.007,5.258-5.185,10.762l-65.05,112.67a21.169,21.169,0,0,1-28.811,7.72L128.1,231.511a40.582,40.582,0,0,1-13.255,6.2l22.313,12.882a32.767,32.767,0,0,0,16.435,4.423,33.389,33.389,0,0,0,8.667-1.15,32.857,32.857,0,0,0,20.1-15.386l64.988-112.564.062-.106C255.621,111.593,255.83,109.783,251.139,93.519Z" fill="#13315b"/>
            <path d="M231.689,99.168l-.006-.286-3.571-31.065-1.921-16.712-3.158-27.479c-1.2-10.414-3.4-12.618-13.842-13.867L130.7.361l-.462-.056-.461.017a54.718,54.718,0,0,0-9.846.875l2.617,11.708a44.953,44.953,0,0,1,7.189-.578l78.03,9.34c.851.1,2.072.248,2.982.4.123.815.249,1.912.365,2.926l8.586,74.69c.131,6.952.144,10.141-.66,12.177-.825,2.083-3.3,4.558-7.794,9.052l-91.994,92a21.1,21.1,0,0,1-2.853,2.365c-.262.183-.523.363-.791.532a21.013,21.013,0,0,1-9.219,3.169h-.029c-.3.028-.592.026-.888.042-.121.006-.242.013-.364.017-.257.009-.513.037-.771.037s-.49-.027-.736-.035c-.429-.015-.859-.021-1.287-.062a21.649,21.649,0,0,1-12.891-6.07L62.5,185.984l-8.485,8.484,26.924,26.924a32.952,32.952,0,0,0,22.357,9.653c.347.011.694.025,1.042.025a33.089,33.089,0,0,0,23.4-9.678L219.728,129.4C231.339,117.786,232.01,116.091,231.689,99.168Z" fill="#13315b"/>
            <path d="M186.358,64.588a18.4,18.4,0,1,1,18.4-18.4h0A18.423,18.423,0,0,1,186.358,64.588Zm0-26.8a8.4,8.4,0,1,0,8.4,8.4h0a8.412,8.412,0,0,0-8.4-8.4Z" fill="#13315b"/>
            <path d="M122.674,146.191a20.906,20.906,0,0,1-6.361,4.377,22.147,22.147,0,0,1-7.648,1.838,24.092,24.092,0,0,1-8.346-.994,26.279,26.279,0,0,1-8.31-4.264l-8.383,8.384-7.944-7.943,8.385-8.385a34.159,34.159,0,0,1-6.324-12.5,39.9,39.9,0,0,1-1.03-12.8L89.288,115a21.525,21.525,0,0,0,2.574,16.7l18.017-18.017a68.808,68.808,0,0,1-3.2-7.1,28.182,28.182,0,0,1-1.8-7.465,19.1,19.1,0,0,1,.735-7.427,16.765,16.765,0,0,1,4.413-6.986,19.443,19.443,0,0,1,6.177-4.192,18.22,18.22,0,0,1,7.208-1.471,23.452,23.452,0,0,1,7.683,1.36,27.383,27.383,0,0,1,7.612,4.156l7.575-7.575,7.942,7.942-7.72,7.723a29.657,29.657,0,0,1,5.109,10.551,36.216,36.216,0,0,1,.846,10.7l-11.472-1.619a19.218,19.218,0,0,0,.258-6.36,17.042,17.042,0,0,0-2.1-6.215l-15.958,15.959q1.764,3.531,3.273,7.391a27.819,27.819,0,0,1,1.838,7.8,20.875,20.875,0,0,1-.845,7.832A18.18,18.18,0,0,1,122.674,146.191Zm-8.088-8.089a8.161,8.161,0,0,0,2.647-6.618,23.263,23.263,0,0,0-2.133-7.722L99.436,139.426a13.346,13.346,0,0,0,8.236,1.985,11.228,11.228,0,0,0,6.914-3.306Zm3.676-45.6a7.245,7.245,0,0,0-2.353,5.957,21.715,21.715,0,0,0,2.059,7.134l13.751-13.751a11.826,11.826,0,0,0-7.316-2.17A9.388,9.388,0,0,0,118.262,92.505Z" fill="#193560"/>
            <path d="M46.537,186.946,21.081,161.49l8.484-8.485,25.456,25.456ZM12.6,153.005l-1.161-1.162a32.854,32.854,0,0,1-9.66-23.4,33.315,33.315,0,0,1,3.758-15.37l10.642,5.556a21.264,21.264,0,0,0-2.4,9.814,20.937,20.937,0,0,0,6.145,14.915l1.161,1.161ZM22.62,110.83l-8.485-8.484L39.591,76.889l8.483,8.484ZM56.561,76.888l-8.487-8.483L73.533,42.948l8.484,8.484ZM90.5,42.947l-8.485-8.485L103.683,12.8c1.433-1.432,2.67-2.67,3.772-3.739l8.359,8.609c-1.065,1.035-2.261,2.231-3.645,3.616Z" fill="#fdd800"/>
        </g>
    </g>
</svg>
