<svg aria-hidden="true" focusable="false" xmlns="http://www.w3.org/2000/svg" width="104" height="104" viewBox="0 0 104 104"><g><g><path d="M89.005,91.419a7.941,7.941,0,0,1-7.933,7.932H40.359v4.726H81.072A12.673,12.673,0,0,0,93.73,91.419V30.886H89.005Z" fill="#053361"/><rect x="10.272" y="49.714" width="4.725" height="14.995" fill="#ffd900"/><path d="M15,91.419V87.37H10.272v4.049a12.614,12.614,0,0,0,5.812,10.648l1.13.742L18.7,98.447l-.061-.061A8.418,8.418,0,0,1,15,91.419Z" fill="#ffd900"/><rect x="10.272" y="30.886" width="4.725" height="14.995" fill="#ffd900"/><path d="M22.943,99.524l-.65-.048-.936,4.516.649.05c.3.022.607.033.921.033h13.6V99.35l-13.015.194C23.319,99.544,23.129,99.538,22.943,99.524Z" fill="#ffd900"/><rect x="10.272" y="68.542" width="4.725" height="14.995" fill="#ffd900"/><path d="M83.46,15.73V.077H65.943V6.971L52,0,.36,25.82,0,26V42.458H4.725V28.92L52,5.283,99.275,28.92V42.458H104V26ZM78.735,4.8v8.566L70.668,9.334V4.8Z" fill="#053361"/></g><g><path d="M52.058,26.852A21.733,21.733,0,0,0,30.349,48.561c0,10.9,5.58,21.024,8.907,26.085A56.456,56.456,0,0,0,46.1,83.23C49.852,87,51.455,87,52.058,87s2.206,0,5.962-3.771a56.472,56.472,0,0,0,6.841-8.584c3.326-5.062,8.906-15.181,8.906-26.085A21.733,21.733,0,0,0,52.058,26.852ZM69.433,48.561c0,9.508-4.9,18.568-7.817,23.123-4.384,6.839-8.364,10.251-9.558,10.9-1.193-.652-5.173-4.063-9.558-10.9-2.919-4.555-7.816-13.615-7.816-23.123a17.375,17.375,0,1,1,34.749,0Z" fill="#053361"/><path d="M52.058,40.235a8.121,8.121,0,1,0,8.121,8.121A8.129,8.129,0,0,0,52.058,40.235Zm3.787,8.121a3.787,3.787,0,1,1-3.787-3.786A3.791,3.791,0,0,1,55.845,48.356Z" fill="#053361"/></g></g></svg>
